<svg width="989" height="2000" viewBox="0 0 989 2000" fill="none" xmlns="http://www.w3.org/2000/svg">
<path fill-rule="evenodd" clip-rule="evenodd" d="M827 0C912.604 0 982 69.3959 982 155V598H985C987.209 598 989 599.791 989 602V824C989 826.209 987.209 828 985 828H982V1845C982 1929.94 913.684 1998.91 829.003 1999.99L827 2000H162L159.997 1999.99C75.9827 1998.92 8.07665 1931.02 7.0127 1847L7 1845V885H4C1.79086 885 0 883.209 0 881V739C5.23466e-08 736.791 1.79086 735 4 735H7V694H4C1.79086 694 0 692.209 0 690V549C1.00667e-08 546.791 1.79086 545 4 545H7V475H4C1.79086 475 1.09524e-06 473.209 0 471V405C0 402.791 1.79086 401 4 401H7V155C7 69.3959 76.3959 2.85893e-06 162 0H827ZM162 48C102.906 48 55 95.9055 55 155V1845C55 1904.09 102.906 1952 162 1952H827C886.094 1952 934 1904.09 934 1845V155C934 95.9055 886.094 48 827 48H680V68C680 96.7188 656.719 120 628 120H361C332.281 120 309 96.7188 309 68V48H162Z" fill="#070707"/>
</svg>
